<mxfile host="app.diagrams.net" modified="2021-12-05T09:40:09.085Z" agent="5.0 (Macintosh; Intel Mac OS X 10_15_7) AppleWebKit/537.36 (KHTML, like Gecko) Chrome/96.0.4664.55 Safari/537.36" etag="Pz6KtLrp0B266BnhslNj" version="15.9.1" type="github">
  <diagram name="Page-1" id="d9b1e647-80fa-b4a2-5024-87a742678bcc">
    <mxGraphModel dx="1351" dy="676" grid="1" gridSize="10" guides="1" tooltips="1" connect="1" arrows="1" fold="1" page="1" pageScale="1" pageWidth="1100" pageHeight="850" background="none" math="0" shadow="0">
      <root>
        <mxCell id="0" />
        <mxCell id="1" parent="0" />
        <mxCell id="57fe6abec08f04cb-1" value="2016" style="shape=step;whiteSpace=wrap;html=1;fontSize=28;fillColor=#0080FF;fontColor=#FFFFFF;strokeColor=none;" parent="1" vertex="1">
          <mxGeometry x="160" y="180" width="170" height="80" as="geometry" />
        </mxCell>
        <mxCell id="57fe6abec08f04cb-2" value="2017" style="shape=step;whiteSpace=wrap;html=1;fontSize=28;fillColor=#0075E8;fontColor=#FFFFFF;strokeColor=none;" parent="1" vertex="1">
          <mxGeometry x="310" y="180" width="170" height="80" as="geometry" />
        </mxCell>
        <mxCell id="57fe6abec08f04cb-3" value="2018" style="shape=step;whiteSpace=wrap;html=1;fontSize=28;fillColor=#0067CC;fontColor=#FFFFFF;strokeColor=none;" parent="1" vertex="1">
          <mxGeometry x="460" y="180" width="170" height="80" as="geometry" />
        </mxCell>
        <mxCell id="57fe6abec08f04cb-4" value="2019" style="shape=step;whiteSpace=wrap;html=1;fontSize=28;fillColor=#0062C4;fontColor=#FFFFFF;strokeColor=none;" parent="1" vertex="1">
          <mxGeometry x="610" y="180" width="170" height="80" as="geometry" />
        </mxCell>
        <mxCell id="57fe6abec08f04cb-5" value="2020" style="shape=step;whiteSpace=wrap;html=1;fontSize=28;fillColor=#0059B0;fontColor=#FFFFFF;strokeColor=none;" parent="1" vertex="1">
          <mxGeometry x="760" y="180" width="170" height="80" as="geometry" />
        </mxCell>
        <mxCell id="57fe6abec08f04cb-6" value="2021" style="shape=step;whiteSpace=wrap;html=1;fontSize=28;fillColor=#004D99;fontColor=#FFFFFF;strokeColor=none;" parent="1" vertex="1">
          <mxGeometry x="910" y="180" width="170" height="80" as="geometry" />
        </mxCell>
        <mxCell id="57fe6abec08f04cb-7" value="履历" style="text;html=1;strokeColor=none;fillColor=#61BAFF;align=center;verticalAlign=middle;whiteSpace=wrap;fontSize=54;fontStyle=1;fontColor=#004D99;" parent="1" vertex="1">
          <mxGeometry x="30" y="110" width="1050" height="60" as="geometry" />
        </mxCell>
        <mxCell id="57fe6abec08f04cb-8" value="&lt;span style=&quot;font-size: 20px&quot;&gt;全球购Android Owner&lt;br&gt;&lt;br&gt;&lt;/span&gt;&lt;span style=&quot;font-size: 20px&quot;&gt;android图片sdk&lt;br&gt;&lt;/span&gt;&lt;span style=&quot;font-size: 20px&quot;&gt;&lt;br&gt;&lt;/span&gt;&lt;span style=&quot;font-size: 20px&quot;&gt;android升级sdk&lt;/span&gt;&lt;span style=&quot;font-size: 20px&quot;&gt;&lt;br&gt;&lt;/span&gt;" style="text;spacingTop=-5;fillColor=#ffffff;whiteSpace=wrap;html=1;align=left;fontSize=12;fontFamily=Helvetica;fillColor=none;strokeColor=none;" parent="1" vertex="1">
          <mxGeometry x="170" y="280" width="140" height="470" as="geometry" />
        </mxCell>
        <mxCell id="57fe6abec08f04cb-9" value="&lt;font style=&quot;font-size: 20px&quot;&gt;如鱼app、h5、后端开发&lt;br&gt;&lt;br&gt;android图片sdk&lt;br&gt;&lt;br&gt;android交易sdk&lt;br&gt;&lt;br&gt;android升级sdk客户端、后端开发(houtu)&lt;br&gt;&lt;/font&gt;" style="text;spacingTop=-5;fillColor=#ffffff;whiteSpace=wrap;html=1;align=left;fontSize=12;fontFamily=Helvetica;fillColor=none;strokeColor=none;" parent="1" vertex="1">
          <mxGeometry x="320" y="280" width="140" height="470" as="geometry" />
        </mxCell>
        <mxCell id="57fe6abec08f04cb-10" value="&lt;font style=&quot;font-size: 20px&quot;&gt;app商品详情&lt;/font&gt;&lt;span style=&quot;font-size: 20px&quot;&gt;Owner、后端开发&lt;br&gt;&lt;br&gt;app店铺详情&lt;/span&gt;&lt;span style=&quot;font-size: 20px&quot;&gt;Owner&lt;br&gt;android客户端开发&lt;/span&gt;&lt;span style=&quot;font-size: 20px&quot;&gt;&lt;br&gt;&lt;br&gt;&lt;/span&gt;" style="text;spacingTop=-5;fillColor=#ffffff;whiteSpace=wrap;html=1;align=left;fontSize=12;fontFamily=Helvetica;fillColor=none;strokeColor=none;" parent="1" vertex="1">
          <mxGeometry x="470" y="280" width="140" height="470" as="geometry" />
        </mxCell>
        <mxCell id="57fe6abec08f04cb-11" value="&lt;font style=&quot;font-size: 20px&quot;&gt;app商品详情&lt;/font&gt;&lt;span style=&quot;font-size: 20px&quot;&gt;后端开发&lt;br&gt;&lt;br&gt;&lt;/span&gt;&lt;font style=&quot;font-size: 20px&quot;&gt;app店铺详情&lt;/font&gt;&lt;span style=&quot;font-size: 20px&quot;&gt;后端开发&lt;br&gt;&lt;/span&gt;&lt;span style=&quot;font-size: 20px&quot;&gt;&lt;br&gt;app集市页后端开发&lt;br&gt;&lt;/span&gt;" style="text;spacingTop=-5;fillColor=#ffffff;whiteSpace=wrap;html=1;align=left;fontSize=12;fontFamily=Helvetica;fillColor=none;strokeColor=none;" parent="1" vertex="1">
          <mxGeometry x="620" y="280" width="140" height="470" as="geometry" />
        </mxCell>
        <mxCell id="57fe6abec08f04cb-12" value="&lt;font style=&quot;font-size: 20px&quot;&gt;app店铺详情&lt;/font&gt;&lt;span style=&quot;font-size: 20px&quot;&gt;后端开发&lt;br&gt;&lt;br&gt;&lt;/span&gt;&lt;span style=&quot;font-size: 20px&quot;&gt;app集市页后端开发&lt;br&gt;&lt;/span&gt;&lt;span style=&quot;font-size: 20px&quot;&gt;&lt;br&gt;&lt;/span&gt;&lt;span style=&quot;font-size: 20px&quot;&gt;app沉浸式后端开发&lt;br&gt;&lt;/span&gt;&lt;span style=&quot;font-size: 20px&quot;&gt;&lt;br&gt;&lt;/span&gt;&lt;span style=&quot;font-size: 20px&quot;&gt;内容标签后端开发&lt;br&gt;&lt;/span&gt;&lt;span style=&quot;font-size: 20px&quot;&gt;&lt;br&gt;&lt;/span&gt;&lt;span style=&quot;font-size: 20px&quot;&gt;内容审核后台开发&lt;/span&gt;&lt;span style=&quot;font-size: 20px&quot;&gt;&lt;br&gt;&lt;br&gt;&lt;/span&gt;" style="text;spacingTop=-5;fillColor=#ffffff;whiteSpace=wrap;html=1;align=left;fontSize=12;fontFamily=Helvetica;fillColor=none;strokeColor=none;" parent="1" vertex="1">
          <mxGeometry x="770" y="280" width="140" height="470" as="geometry" />
        </mxCell>
        <mxCell id="57fe6abec08f04cb-13" value="&lt;font style=&quot;font-size: 20px&quot;&gt;&lt;font style=&quot;font-size: 20px&quot;&gt;&lt;font style=&quot;font-size: 20px&quot;&gt;二手交易技术pm、后端开发&lt;br&gt;&lt;/font&gt;&lt;br&gt;商品群技术pm、后端开发&lt;br&gt;&lt;/font&gt;&lt;br&gt;超级群技术pm、后端开发&lt;/font&gt;" style="text;spacingTop=-5;fillColor=#ffffff;whiteSpace=wrap;html=1;align=left;fontSize=12;fontFamily=Helvetica;fillColor=none;strokeColor=none;" parent="1" vertex="1">
          <mxGeometry x="925" y="280" width="140" height="470" as="geometry" />
        </mxCell>
        <mxCell id="9X-xMcw45A1n0LlkaAxj-1" value="2015" style="shape=step;whiteSpace=wrap;html=1;fontSize=28;fillColor=#0F9FFF;fontColor=#FFFFFF;strokeColor=none;" vertex="1" parent="1">
          <mxGeometry x="10" y="181" width="170" height="80" as="geometry" />
        </mxCell>
        <mxCell id="9X-xMcw45A1n0LlkaAxj-2" value="&lt;font style=&quot;font-size: 20px&quot;&gt;全球购Android Owner&lt;/font&gt;" style="text;spacingTop=-5;fillColor=#ffffff;whiteSpace=wrap;html=1;align=left;fontSize=12;fontFamily=Helvetica;fillColor=none;strokeColor=none;" vertex="1" parent="1">
          <mxGeometry x="20" y="281" width="140" height="470" as="geometry" />
        </mxCell>
      </root>
    </mxGraphModel>
  </diagram>
</mxfile>
